<?xml version="1.0" encoding="utf-8"?>
<!-- Generator: Adobe Illustrator 22.0.1, SVG Export Plug-In . SVG Version: 6.00 Build 0)  -->
<svg version="1.1" id="Layer_1" xmlns="http://www.w3.org/2000/svg" xmlns:xlink="http://www.w3.org/1999/xlink" x="0px" y="0px"
	 viewBox="0 0 134.3 106.2" style="enable-background:new 0 0 134.3 106.2;" xml:space="preserve">
<style type="text/css">
	.st0{fill:none;stroke:#F9F9FA;stroke-width:4;stroke-linecap:round;stroke-linejoin:round;stroke-miterlimit:10;}
</style>
<path class="st0" d="M12.3,84.5c29.8-11.4,54.3-1.4,54.3-1.4V13.8C49.7,1.3,12.3,8.7,12.3,8.7L12,85"/>
<path class="st0" d="M121.6,84.5c-29.8-11.4-54.3-1.4-54.3-1.4V13.8c16.8-12.5,54.2-5.1,54.2-5.1l0.4,76.3"/>
<path class="st0" d="M4.1,10.7v82.6c0,0,37.9-13.2,62.8,0.5"/>
<path class="st0" d="M129.7,10.7v82.6c0,0-37.8-13.2-62.7,0.5"/>
<path class="st0" d="M20.6,25c0,0,21.2-9.1,39,2.9"/>
<path class="st0" d="M20.6,38.5c0,0,21.2-9.1,39,2.9"/>
<path class="st0" d="M20.6,51.9c0,0,21.2-9.1,39,2.9"/>
<path class="st0" d="M20.6,65.3c0,0,21.2-9.1,39,2.9"/>
<path class="st0" d="M74.8,28c0,0,18.7-11.4,38.7-3.1"/>
<path class="st0" d="M75.2,41.4c0,0,18.7-11.4,38.7-3.1"/>
<path class="st0" d="M74.8,54.8c0,0,18.7-11.4,38.7-3.1"/>
<path class="st0" d="M74.8,68.2c0,0,18.7-11.4,38.7-3.1"/>
</svg>
