<svg width="30.4" height="30.199999999999996" xmlns="http://www.w3.org/2000/svg">

 <g>
  <title>background</title>
  <rect fill="none" id="canvas_background" height="402" width="582" y="-1" x="-1"/>
 </g>
 <g>
  <title>Layer 1</title>
  <path stroke-miterlimit="10" stroke-linejoin="round" stroke-linecap="round" stroke-width="1.25" stroke="#ffffff" fill="none" id="svg_1" d="m11.5,29.1c-0.4,0 -0.8,-0.3 -0.8,-0.8l0,-12.4c0,-0.4 -0.3,-0.8 -0.8,-0.8l-2.1,0c-0.4,0 -0.8,-0.3 -0.8,-0.8l0,-3c0,-0.4 0.3,-0.8 0.8,-0.8l2,0c0.4,0 0.8,-0.3 0.8,-0.8l0,-4.5c-0.1,-2.3 2.4,-4.1 4.4,-4.2c1.5,0 4.4,0 5.8,0c0.4,0 0.8,0.4 0.8,0.8l0,2.9c0,0.4 -0.3,0.8 -0.8,0.8l-2.3,0c-1.3,0 -2.3,1 -2.3,2.3l0,2c0,0.4 0.3,0.8 0.8,0.8l3,0c0.4,0 0.8,0.3 0.8,0.8l0,3.1c0,0.4 -0.3,0.8 -0.8,0.8l-2.8,0c-0.4,0 -0.8,0.3 -0.8,0.8l0,12.4" class="st0"/>
 </g>
</svg>
