<?xml version="1.0" encoding="utf-8"?>
<!-- Generator: Adobe Illustrator 22.0.1, SVG Export Plug-In . SVG Version: 6.00 Build 0)  -->
<svg version="1.1" id="Layer_1" xmlns="http://www.w3.org/2000/svg" xmlns:xlink="http://www.w3.org/1999/xlink" x="0px" y="0px"
	 viewBox="0 0 134.3 114.6" style="enable-background:new 0 0 134.3 114.6;" xml:space="preserve">
<style type="text/css">
	.st0{fill:none;stroke:#FFFFFF;stroke-width:5;stroke-linecap:round;stroke-linejoin:round;stroke-miterlimit:10;}
	.st1{fill:none;stroke:#FFFFFF;stroke-width:3;stroke-linecap:round;stroke-linejoin:round;stroke-miterlimit:10;}
</style>
<circle class="st0" cx="66.8" cy="54.8" r="50.7"/>
<path class="st1" d="M21.1,32.9l8.1,7.7c0,0,16.9-8.2,14.5,8c0,0,7.1,8.9,5.9,9.9s-2,9.3-10.7,6.1c-8.7-3.2-6.9-6.7-11.6-1.8
	S20,70,20,70"/>
<path class="st1" d="M28,87.3c0,0,5.3-4.6,11.6-5.2c6.3-0.6,7.9-3.6,7.9-3.6h6.9c0,0-1.6,10.9,0,10.9c1.6,0,6-9.9,12.5-10.1
	c6.5-0.2,11.8,12,11.8,12H65.4c0,0-10.8,7.7-15.7,3.6s-5.5-2.6-5.5-2.6l-2.8,3.8"/>
<path class="st1" d="M72,4.3c0,0,1.3,8.5-7.7,13.4c0,0,6.4,5.9,7.8,5.9c1.5,0,6.6-2.6,6.6-2.6s15.6,22.1,19.5,1.6l4.5-2"/>
<path class="st1" d="M78.6,49.1c0,0-10.5,6.1-9.1,9.3C70.9,61.6,77,70,77,70s7.3-3.9,8.9-6.3c1.6-2.4,13.8,4.3,13.8,4.3
	s15.8-1.4,2.2-18c0,0-5.7-6.3-3-9.6c2.8-3.3-9.1,0-9.1,0L78.6,49.1"/>
</svg>
