<?xml version="1.0" encoding="utf-8"?>
<!-- Generator: Adobe Illustrator 22.1.0, SVG Export Plug-In . SVG Version: 6.00 Build 0)  -->
<svg version="1.1" id="Layer_1" xmlns="http://www.w3.org/2000/svg" xmlns:xlink="http://www.w3.org/1999/xlink" x="0px" y="0px"
	 viewBox="0 0 425.2 365.7" style="enable-background:new 0 0 425.2 365.7;" xml:space="preserve">
<style type="text/css">
	.st0{fill:#FFFFFF;}
</style>
<g>
	<path class="st0" d="M58.6,271.9c-0.1-0.2-0.2-0.3-0.3-0.5c-2.5-6.2-5.8-12-8.5-18c-2-4.3-3.1-9.1-4.7-13.6c-2.1-6-4.5-11.9-5.9-18
		c-1.2-5-2.8-10.1-3.2-15.1c-0.8-10.5-1.8-21.1-0.5-31.8c0.8-6.7,1.5-13.5,3.4-19.9c1.9-6.4,3.2-13,5-19.4
		c2.7-9.8,6.5-18.9,11.1-27.9c2.7-5.3,6.6-9.7,10-14.4c0.4-0.6,0.9-1.4,1.7-0.8c1.8,1.4,4.2,1.1,5.9,2.6c0.8,0.7,1.7,1.1,2.7,0.2
		c0.4-0.3,0.5-0.7,1,0c1.5,2.1,3.6,1.5,5.2,0.4c1.1-0.8,2.1-1.2,3.4-1.2c1.1,0,2.2-0.5,2.9-1.4c2.8-3.5,6.8-5.8,9.4-9.5
		c0.7-0.9,1.7-1.2,2.6-0.5c2.2,1.8,4.7,3.3,5.4,6.5c0.1,0.4,0.2,0.7,0.5,1c3.6,4.8,4.9,10.1,4.4,15.9c-0.6,5.6-1.4,11.2-2.9,16.6
		c-0.1,0.2-0.1,0.5-0.1,0.7c0,0.5-0.2,1.1-0.4,1.5c-0.2,0.4-0.2,0.8,0.2,1.3c0.6,0.6,1.2,0.7,1.7-0.2c-2.4,1.6-2.3,1.6-3.6,6.9
		c-1.5,5.9-3.3,11.6-3.9,17.7c-0.9,9.4,0.5,18.4,4.4,26.9c1.6,3.6,4.6,6.4,7.9,8.9c6.2,4.7,11.7,10.4,18.4,14.5
		c2.9,1.8,5.9,3.1,9.4,3.4c1,0.1,2,0,2.9,0.6c5.2,3.1,11,4,16.8,4.7c2.8,0.3,5.6,0.9,8.1,2.2c0.5,0.3,1.2,0.5,1.8,0.4
		c0.6-0.1,1.1-0.6,0.9-1.4c0-0.1-0.5-0.3-0.7-0.2c-0.6,0.4-0.5,1-0.1,1.4c2.3,2.5,2.2,5.4,2,8.5c-0.1,0.7,0.2,1.5,0.5,2.1
		c1.3,2.8,1,3.9-1.7,5.5c-2.7,1.6-2.7,2.8-2,5.7c1.1,4.8,5,6.8,8.5,9.3c4.9,3.5,10.1,6.5,13.6,11.6c3.4,5,6.4,10.1,7.3,16.2
		c0.3,2.2,1.5,4,3.2,5.5c4,3.7,6.7,8.1,6.8,13.9c0,1.8,0.6,3.6,1.4,5.3c2.2,4.7,2,9.7,2.5,14.6c0.1,1.1-0.1,1.9-1.1,2.6
		c-0.4,0.3-0.8,0.8-0.9,1.3c-0.7,4.7-3.9,8.4-5,12.9c-1.9,7.4-1.2,14.6,1.5,21.6c1.2,3.1-1.3,6.3-4.6,6.8
		c-6.9,1.1-13.5-0.5-20.2-0.8c-2.6-0.1-5.1-0.8-7.6-0.8c-0.2,0-0.4,0-0.7-0.1c-1.2-0.3-2.4-0.4-3.6-0.3c-0.5,0-1-0.1-1.4-0.3
		c-0.2-0.1-0.5-0.2-0.7-0.2c-0.7,0-1.4-0.3-1.9-0.8c-0.3-0.2-0.6-0.3-0.9-0.4c-0.2,0-0.3-0.1-0.5-0.2c-2.2-1-4.3-2.2-6.8-2.3
		c-3.7-0.3-6.9-2.3-10.5-2.7c-0.8-0.1-1.4-0.5-1.9-1.1c-0.6-0.8-1.3-1.2-2.5-1.4c-2.1-0.3-4-1.1-5.3-2.9c-0.8-1.2-2-2.2-3.2-2.3
		c-2.7-0.2-4.7-1.8-7.1-2.6c-0.1,0-0.3-0.1-0.4-0.2c-3.9-2.2-7.7-4.4-11.6-6.6c-0.1-0.1-0.2-0.1-0.3-0.2c-1.3-1-2.6-2.1-4-3
		c-7.3-4.6-13.7-10.3-20.5-15.6c-2.6-2-5-4.2-7.5-6.3c-0.1-0.1-0.3-0.2-0.4-0.4c-1.9-2.5-3.6-5.2-5.9-7.4c-3.5-3.4-6.1-7.4-9.1-11.2
		C64.5,281.6,62,276.4,58.6,271.9z"/>
	<path class="st0" d="M305.6,47.7c0-1-0.1-2-0.1-2.9c0.1-6.1,0.7-6.5,6-3.9c4.3,2.6,7.3,5.6,10.6,8.6c7.5,6.9,14.3,14.4,20.7,22.3
		c5.5,6.7,11.3,13.3,15.6,20.9c2.5,4.5,3.2,9.4,2.9,14.5c-0.1,1.8-1.4,1.6-2.6,1.3c-5.1-1-9.2-4.1-13.1-7.3
		c-5.2-4.2-6.6-3.7-10.8,1.6c-3.6,4.5-5.5,9.4-6.3,15c-0.2,1.8-1.1,3.2-2.3,4.5c-2.1,2.3-3.3,4.9-3.6,8.1c-0.4,4.8-2.4,9.3-1.4,14.3
		c1,4.7,1.9,9.4,3.4,14c1,3.2,3.8,4.1,6.2,5.2c2.2,1,4.2,2.3,6.1,3.5c2,1.3,3.7,2.7,2.6,5.8c-0.6,1.8,0.6,3.7,1.9,5.2
		c0.2,0.7,0.7,1.2,1.4,1.5c0,0,0,0,0,0.1c-0.6,2,0.7,2.9,1.4,4.1c0.9,1.5,1.8,2.9,1,4.7c-0.5,0.8-0.6,1.6-0.6,2.5
		c-1.6,4.6-2.4,9.2-1.9,14.1c0.2,1.8,0,3.8-0.4,5.6c-0.7,3.3-0.2,6.2,2.2,8.7c0.6,4.7,3.4,8.2,6.3,11.7c1.3,3.6,3.8,6,7.7,6.8
		c2.5,2,5.8,2,8.5,3.3c1.3,0.6,2.6,1.2,3.7,2.1c0.9,0.6,1.1,1.6,0.7,2.7c-2.3,5.9-4.6,11.8-7,17.7c-2.8,7-7.4,12.8-11.6,19
		c-5.4,7.9-11.5,15.2-17.2,22.8c-2.4,3.2-5.6,5.9-8.6,8.6c-4,3.7-7.5,7.9-11.7,11.4c-3.4,2.8-7.2,4.9-11,7
		c-5.7,3.2-10.7,7.4-16.5,10.5c-1.5,0.8-3.1,1.5-4.7,2.2c-8.1,3.2-15.8,7.3-24.5,8.9c-2.9,0.5-5.8,1.4-8.5,2.7
		c-1.2-0.2-2.4-0.1-3,1.8c-1.4-2.6-3-2.5-4.8,1.3c-2-5-1.2-10.2-1.6-15.3c3.7-7.3,10.9-10.7,17-15.4c3.5-2.7,7.3-5,10.9-7.5
		c1.5,0.1,1.8-1.7,3-2.1c2.2-0.7,2.9-2.5,2.7-4.7c2.4,0.8,2.2-0.4,2.1-1.4c5.3-3.3,8.8-8.3,12.9-12.8c4.6-5.1,7.6-11.5,12.3-16.5
		c3.4-3.6,4.8-8.1,7-12.1c2.8-5.1,2.7-10.7-1-15.7c-0.8-1.1-1.8-1.7-3-1.3c-4.1,1.1-8.4,1.1-12.5,2.4c-4.1,1.3-7.8-0.7-11.4-2.4
		c-8-3.8-13.8-10.2-19.5-16.6c-3.4-3.9-6.1-8.3-8.9-12.7c-0.3-0.5-0.6-1.2-1-1.6c-5.8-5.1-10.5-11.3-17.1-15.5
		c-1-0.6-1.9-1.4-3.3-1.1c-5.2,0.7-10.3,1.7-14.1,6c-0.1,0.1-0.3,0.2-0.4,0.3c-0.8,0.3-1.6,0.5-2.3,0.8c-0.5-0.1-0.9,0.1-1.3,0.4
		c-0.6,0-1.1,0.3-1.4,0.7c-3.1,1.7-6.5,2.5-9.9,3.5c-2.2,0.6-4.4,0.1-6.1-1.5c-3.7-3.5-6.1-7.7-6.9-12.9c-0.6-3.7,0.4-7.2,0-10.8
		c-0.5-4,0.7-7.9,0.5-11.9c-0.1-3.9-1.2-4.7-5-4.3c-1.7,0.2-3.4-0.3-5.1-0.5c-0.9-0.1-1.8-0.6-2.5,0.3c-0.6-1.2-2.1-1.3-2.9-2.3
		c0-4.9-2.3-9.9,0.6-14.6c0.1,0,0.2-0.1,0.2-0.2c0.5-0.3,0.9-0.7,0.9-1.4c0.8-1.6,2.8-1.7,3.7-3c1.2,0.2,2.1-0.5,3.1-0.9
		c5.2-1.9,9.8-5.5,15.7-5.2c0.4,0,0.8-0.3,1.2-0.5l1.4-0.1c2.3,0.3,3.9,2.3,6.1,3c3.8,3.5,7.3,7.3,10.1,11.7c0.9,1.5,2.7,3,4.8,0.1
		c4.6,1.2,7.9-1.6,11.8-3c3.6-1.2,7.6-1.9,11.6-1c8,1.8,12.7,8.1,18.2,13.1c2.8,2.5,8.8,3.4,12,1.5c1.3-0.8,2-2.1,2.5-3.5
		c2.3-7,1.9-13.9-0.5-20.8c-1.1-3.3-2.3-6.8-1.7-10.4c0.3-1.7,0.5-3.5,3.2-3c0.9,0.2,2-0.8,3-1c3-0.6,7.1,1.6,8.9,4.7
		c1.3,2.3,3.3,3.1,6.1,2.4c1.5-0.4,3.8-4.3,3.5-6c-0.5-3.2-2.1-6.1-2.6-9.5c-0.6-4.2,0-8.2,1.2-12.1c1.9-6.4,5.4-12,8.7-17.7
		c1.8-3,3.3-6.2,3.4-9.9c0.8-0.6,1.2-1.6,1.6-2.5c1.2-3-1.3-5.1-2-7.5c-0.2-1.4-0.4-2.8-0.6-4.2c0.7-5.8-0.1-11.5-0.9-17.3
		C308.1,53.5,308.6,50.1,305.6,47.7z M240,191.5c1.7,4.3,4.7,7.5,8.2,10.3c0.7,0.5,1.4,0.2,2-0.3c2.1,1.6,3.5,0.6,4.7-1.3
		c1.4-2.2,2.6-4.5,5-6c1.1-0.7,3.1-1.2,2.3-2.8c-0.8-1.6-2.7-1.1-4.2-0.6c-0.5,0.2-1,0.5-1.5,0.7c-3.9,1.8-7.7,2.5-11.6-0.2
		c-1-0.7-2.3-1.1-3.5-1.4C239.9,189.5,238.9,189.8,240,191.5z M208.2,196.4c1.8-0.8,3.6-1.3,4-3.5c0.2-1.2,0.3-2.3,1.3-3.2
		c0.5-0.4,0.3-1,0-1.5c-2.1-3.4-4.1-6.9-6.3-10.1c-1.2-1.7-2.2-3.6-4-4.8c-0.4-0.3-0.8-0.6-1.2-0.3c-0.5,0.3-0.3,0.8-0.2,1.2
		c0.5,2.2,0.6,4.6,1.9,6.5c2.4,3.6,3.9,7.4,4.3,11.7C208.1,193.8,207.6,195.1,208.2,196.4z"/>
	<path class="st0" d="M186.2,10.4c11.2-0.7,22.4-0.4,33.5,0.6c8.2,0.7,16.1,2.8,24.1,4.5c4,0.9,7.8,2.3,11.4,4.3
		c0.5,0.3,1.1,0.5,1,1.1c0,0.7-0.8,0.6-1.2,0.8c-5.1,2.4-10.7,1.9-16,2.5c-9.3,1.1-18.6,2.1-26.8,7.3c-2.6,1.6-4.5,3.8-5.9,6.3
		c-2,3.7-4.3,7.2-6.3,10.9c-1.5,2.7-6.1,4.7-8.6,3.7c-3.2-1.2-4.9-5.3-3.7-8.9c1.3-4,1.4-8.2,1.8-12.4c0.2-2.2-0.8-3.8-3.5-3.9
		c-2.4-0.1-4.2-1.6-6.2-2.6c-2.6-1.4-3.8-1.1-5.4,1.4c-1.6,2.6-3.3,5.1-6.2,6.6c-1.9,1-3.7,1.2-5.8,1c-2.9-0.3-5.8-0.6-8.3,1.4
		c-1.9,1.5-4.1,0.4-6.1,0.8c-3.5,0.6-7,1.1-10.6,0.9c-2.5-0.1-4.8-1.1-7.1-1.7c-2.2-0.5-2.2-2-1-3.5c2.1-2.5,4.8-4.5,7.6-6.1
		c3.8-2.2,7.9-4,11.8-6.1c2-1.1,4.3-1.5,6.4-2.2c8.4-2.9,17-5.2,25.9-6.4C182.7,10.4,184.5,10.5,186.2,10.4z"/>
	<path class="st0" d="M203.7,85.7c-0.2-0.5-0.3-0.9-0.5-1.4c0.1-0.6-0.1-0.9-0.7-1c-0.9-0.4-1.9-1.1-1.3-2c1.4-2,0.1-3.3-0.6-4.9
		c-0.8-1.8,0-3.4,0.8-4.9c1.8-3.2,4.3-5.8,5.4-9.4c0.3-1,1.1-0.8,1.8-0.7c1.4,0.2,2.7,0.4,4.1,0c4.9-1.4,9.3-0.2,13.5,2.2
		c2.8,1.6,5.7,2.6,9.1,1.8c2.4-0.5,4-2.2,6.3-3c3-1,5.8-2.3,8.8-3.3c4.4-1.5,9-1.5,13.5-1.1c2.9,0.3,3.9,2.9,4.9,5.3
		c-1.8,3.9-2.6,8.8-8.4,8.8c-0.4,0-0.8,0.4-1.2,0.5c-3.1,0.9-6.1,2.3-9.1,2.9c-7.2,1.3-13.3,4.5-18,9.7c-5.2,5.6-11,8.1-18.7,6.7
		C209,91.3,205.6,89.8,203.7,85.7z"/>
	<path class="st0" d="M366.9,141.6c-0.2,3.2,0.3,6-0.4,8.7c-0.3,1.2,0.7,2.2,1.2,3.3c0.7,1.4,0.8,3-0.6,3.9c-1.5,1-2.6,0-3.7-1.2
		c-5.2-5.3-7-11.7-6.9-18.9c0.1-3-0.9-5.9,0.4-8.9c0.6-1.5,1.4-2.8,3.1-3.2c1.6-0.4,1.8,1.2,2.6,2
		C366.9,131.4,367.6,136.6,366.9,141.6z"/>
	<path class="st0" d="M234.3,222.5c3.3,0,6.1,2.1,6.4,5.4c0.2,2.4,2.3,4.1,2.4,6.6c0,1.3,0.9,2.9-0.6,3.6c-1.6,0.8-3.2-0.2-4.3-1.5
		c-1-1.2-1.9-2.5-2.6-3.9c-0.9-1.8-2-2.2-3.9-1.7c-3.2,0.8-4.1,0.2-5.1-2.4c-0.9-2.3-0.1-3.6,1.9-4.6
		C229.8,223.5,233.2,222.5,234.3,222.5z"/>
</g>
</svg>
