<?xml version="1.0" encoding="utf-8"?>
<!-- Generator: Adobe Illustrator 22.0.1, SVG Export Plug-In . SVG Version: 6.00 Build 0)  -->
<svg version="1.1" id="Layer_1" xmlns="http://www.w3.org/2000/svg" xmlns:xlink="http://www.w3.org/1999/xlink" x="0px" y="0px"
	 viewBox="0 0 134.3 114.6" style="enable-background:new 0 0 134.3 114.6;" xml:space="preserve">
<style type="text/css">
	.st0{fill:none;stroke:#FFFFFF;stroke-width:3;stroke-linecap:round;stroke-linejoin:round;stroke-miterlimit:10;}
</style>
<circle class="st0" cx="64.5" cy="60.4" r="50.7"/>
<path class="st0" d="M18.8,38.5l8.1,7.7c0,0,16.9-8.2,14.5,8c0,0,7.1,8.9,5.9,9.9c-1.2,1-2,9.3-10.7,6.1s-6.9-6.7-11.6-1.8
	s-7.3,7.3-7.3,7.3"/>
<path class="st0" d="M25.7,92.9c0,0,5.3-4.6,11.6-5.2c6.3-0.6,7.9-3.6,7.9-3.6H52c0,0-1.6,10.9,0,10.9s6-9.9,12.5-10.1
	s11.8,12,11.8,12H63.1c0,0-10.8,7.7-15.7,3.6C42.6,96.4,42,98,42,98l-2.8,3.8"/>
<path class="st0" d="M69.7,10c0,0,1.3,8.5-7.7,13.4c0,0,6.4,5.9,7.8,5.9s6.6-2.6,6.6-2.6s15.6,22.1,19.5,1.6l4.5-2"/>
<path class="st0" d="M76.3,54.8c0,0-10.5,6.1-9.1,9.3c1.4,3.2,7.5,11.6,7.5,11.6s7.3-3.9,8.9-6.3c1.6-2.4,13.8,4.3,13.8,4.3
	s15.8-1.4,2.2-18c0,0-5.7-6.3-3-9.6c2.8-3.3-9.1,0-9.1,0L76.3,54.8"/>
</svg>
