<?xml version="1.0" encoding="utf-8"?>
<!-- Generator: Adobe Illustrator 22.0.1, SVG Export Plug-In . SVG Version: 6.00 Build 0)  -->
<svg version="1.1" id="Layer_1" xmlns="http://www.w3.org/2000/svg" xmlns:xlink="http://www.w3.org/1999/xlink" x="0px" y="0px"
	 viewBox="0 0 164.8 126.7" style="enable-background:new 0 0 164.8 126.7;" xml:space="preserve">
<style type="text/css">
	.st0{fill:#FFFFFF;stroke:#FFFFFF;stroke-width:3;stroke-miterlimit:10;}
	.st1{fill:none;stroke:#F9F9F9;stroke-miterlimit:10;}
	.st2{fill:none;stroke:#FFFFFF;stroke-width:2;stroke-miterlimit:10;}
</style>
<line class="st0" x1="22.5" y1="28" x2="27.6" y2="32.5"/>
<line class="st0" x1="33" y1="39.7" x2="40.1" y2="44.5"/>
<line class="st0" x1="48.7" y1="47.2" x2="55.2" y2="45.9"/>
<line class="st0" x1="64.6" y1="44.5" x2="70.3" y2="39.7"/>
<line class="st0" x1="77.7" y1="35.1" x2="83.4" y2="30.3"/>
<line class="st0" x1="91.1" y1="25.1" x2="98" y2="22.3"/>
<line class="st0" x1="106.5" y1="22.3" x2="114.2" y2="23.7"/>
<line class="st0" x1="123.1" y1="25.1" x2="129.3" y2="28"/>
<line class="st0" x1="137" y1="35.1" x2="142.2" y2="39.7"/>
<line class="st0" x1="145.3" y1="47.7" x2="146.8" y2="54.3"/>
<line class="st0" x1="147.8" y1="64.1" x2="147.6" y2="71"/>
<line class="st0" x1="145.3" y1="80.4" x2="143.1" y2="86.9"/>
<line class="st0" x1="138.1" y1="94.6" x2="134.4" y2="100.4"/>
<line class="st0" x1="124.9" y1="104.4" x2="119" y2="108"/>
<line class="st0" x1="109.9" y1="107.7" x2="103.2" y2="106.6"/>
<line class="st0" x1="88.6" y1="99.3" x2="93.7" y2="103.9"/>
<line class="st0" x1="72.9" y1="94.6" x2="79.8" y2="95"/>
<line class="st0" x1="58.3" y1="101.3" x2="64" y2="97.4"/>
<line class="st0" x1="23.4" y1="96.2" x2="50.2" y2="116.4"/>
<line class="st0" x1="26.6" y1="119.2" x2="46.9" y2="92.3"/>
<polyline class="st1" points="286.9,98.5 308.4,98.8 286.9,105.3 286.9,109.2 310.8,104.5 311.2,110.2 286.9,113.6 "/>
<path class="st1" d="M300.6,98.5c0,0,3.1-41,11.9-40.3c8.8,0.7-2.6,15.7-15.5,1.8c0,0-6.2-8.4,0.2-12.1c6.4-3.7,2.8,10.6-3.6,14.2
	c0,0-7.5,6.4-10.4,1.6s2-9.1,3.1-3.7c1.2,5.4,7.9,38.5,7.9,38.5"/>
<path class="st1" d="M309.9,98.5c-2.1-1.4,5.1-18.6,13.4-31.5c8.4-12.9,0.6-44.7-27.8-43.5c-28.4,1.2-26.9,34.9-19.7,43.5
	c7.2,8.6,10.1,31.5,10.1,31.5v17.6l1.9,1.6c0,0,0.3,2.7,2.8,3.7c2.5,1,3,2.7,3,2.7h9c0,0,1-1.9,2.4-2.4c1.3-0.4,3.1-2.8,3-3.9
	l2.4-2.4L309.9,98.5z"/>
<line class="st1" x1="286.8" y1="116.2" x2="311.3" y2="115.6"/>
<line class="st1" x1="289.8" y1="119.9" x2="308.3" y2="119.9"/>
<line class="st1" x1="292.8" y1="122.6" x2="305.3" y2="121.9"/>
<circle class="st2" cx="486.7" cy="33.7" r="12.3"/>
<circle class="st2" cx="548.7" cy="33.7" r="12.3"/>
<circle class="st2" cx="517.4" cy="90" r="12.3"/>
<path class="st2" d="M495.9,41.8c0,0,14.2,11.1,14.2,27.3h-48.3c0-12.5,14.8-28.3,14.8-28.3"/>
<path class="st2" d="M558.6,42.4c0,0,14.2,11.1,14.2,27.3h-48.3c0-12.5,14.8-28.3,14.8-28.3"/>
<path class="st2" d="M527.3,99c0,0,14.2,11.1,14.2,27.3h-48.3c0-12.5,14.8-28.3,14.8-28.3"/>
<path class="st2" d="M501.8,47.9c0,0,14.4-8.9,32.2,0"/>
<path class="st2" d="M482.7,69.7c0,0-7.7,26.3,15.4,41.8"/>
<path class="st2" d="M553.4,70.3c0,0,7.7,26.3-15.4,41.8"/>
</svg>
