<?xml version="1.0" encoding="utf-8"?>
<!-- Generator: Adobe Illustrator 22.0.1, SVG Export Plug-In . SVG Version: 6.00 Build 0)  -->
<svg version="1.1" id="Layer_2" xmlns="http://www.w3.org/2000/svg" xmlns:xlink="http://www.w3.org/1999/xlink" x="0px" y="0px"
	 viewBox="0 0 299.7 272.2" style="enable-background:new 0 0 299.7 272.2;" xml:space="preserve">
<style type="text/css">
	.st0{fill:none;stroke:#E4AD53;stroke-width:2;stroke-miterlimit:10;}
</style>
<path class="st0" d="M193.1,190.5l1.5,2.1l2.6,2.2c0,0,1,0.9,4.1,2.6s3.1,1.8,3.1,1.8l3.8,1.4l6.9,1.9l5.8,0.8l5.1,0.5h9.4l7.4-0.4
	l7.4-0.8l5.2-1l4.5-1.2l4.5-1.8l3.6-1.8l3-1.9l2.4-2.9l0.6-1.8l0.6-2.8l-0.9-3.1l-2.6-2.8l-4.9-3.1l-6-2.6l-4-1.2l-4.1-1l-4.5-0.8
	l-5.9-0.6l-4.9-0.2h-5.8l-5.8,0.2l-3.9,0.4l-3.1,0.4l-4.2,0.8l-4.5,1.1l-3.8,1.2l-4.1,1.5l-2.9,1.6l-2.4,2.1l-1.5,1.6l-1.1,1.4
	l-1,1.4l-0.2,1.6c0,0-0.4,0.4-0.2,1.1s0.1,0.8,0.1,0.8L193.1,190.5z"/>
<path class="st0" d="M279,188.9l-0.1,19.1l-0.2,1.1l-1.9,3.4l-2.1,2.6l-2.4,1.8l-3.2,1.9l-3.8,1.8l-4.9,2l-4.2,1.2l-5.2,1l-4.8,0.6
	l-3.5,0.2l-4.9,0.1l-6.5-0.1l-4.9-0.2l-4.5-0.4l-2.2-0.2l-3.8-0.8l-3.9-1l-4.2-1.2l-3.5-1.2l-3.1-1.4l-2.2-1.1l-2.4-1.1l-2.1-1.4
	l-1.5-1.2l-1.5-1.4l-1.6-1.9c0,0,0,0-0.6-1.2s-0.5-1.2-0.5-1.2l-0.1-2.4v-14.9"/>
<path class="st0" d="M188.7,184.5l-0.1,1.4l-0.1,1.6c0,0,0,0,0.2,4.4l1,1.9l1.9,2.5l1.1,1.1l1.9,1.5l2.6,1.9l1.8,1l2.1,1.2l1.9,0.9
	l3.2,1.2l2,0.6l3.6,1l2.1,0.4l2.6,0.4l3.8,0.5l4,0.4l3.9,0.2h5.2h5.9l3.2-0.1c0,0,1.5-0.1,2.8-0.2s1.2-0.1,1.2-0.1l2.9-0.2
	c0,0,0.6-0.1,2.8-0.4s4.2-0.8,4.2-0.8l2.8-0.6l2.2-0.8l3.1-1.4l2.5-1.2l3.1-1.8l1.8-1.1l2-1.5l1.8-1.8l1.1-1.4l1-1.6l0.8-2.2
	l0.3-2.2l-0.2-3.5l-0.5-2.4l-0.8-1.4l-2.3-2.2l-2.9-2.4l-3.3-2.1l-3.2-1.8l-3.5-1.3l-3.9-1.2l-2.8-0.8l-3.9-1l-3.5-0.8l-4.8-0.4
	l-4.8-0.2l-4.5-0.1l-3.8-0.1l-3.4,0.2l-4,0.4l-4.4,0.5l-4.2,0.7l-3.2,0.7l-2.8,0.7l-2.9,0.8l-2.3,0.8l-3.1,1.4l-1.8,1l-1.1,0.8
	c0,0-0.9,0.6-1.8,1.3c-0.8,0.8-2.2,1.9-2.2,1.9l-1.9,2.1l-1,1.4l-0.9,1.2L188.7,184.5z"/>
<path class="st0" d="M281.2,210.4l-0.1,19.1l-0.2,1.1L279,234l-2.1,2.6l-2.4,1.8l-3.2,1.9l-3.8,1.8l-4.9,2l-4.2,1.2l-5.2,1l-4.8,0.6
	l-3.5,0.2l-4.9,0.1l-6.5-0.1l-4.9-0.2l-4.5-0.4l-2.2-0.2l-3.8-0.8l-3.9-1l-4.2-1.2l-3.5-1.2l-3.1-1.4l-2.2-1.1l-2.4-1.1l-2.1-1.4
	l-1.5-1.2l-1.5-1.4l-1.6-1.9c0,0,0,0-0.6-1.2s-0.5-1.2-0.5-1.2l-0.1-2.4v-14.9"/>
<path class="st0" d="M195.7,70l-0.1,1.4l-0.1,1.6c0,0,0,0,0.2,4.4l1,1.9l1.9,2.5l1.1,1.1l1.9,1.5l2.6,1.9l1.8,1l2.1,1.2l1.9,0.9
	l3.2,1.2l2,0.6l3.6,1l2.1,0.4l2.6,0.4l3.8,0.5l4,0.4l3.9,0.2h5.2h5.9l3.2-0.1c0,0,1.5-0.1,2.8-0.2s1.2-0.1,1.2-0.1l2.9-0.2
	c0,0,0.6-0.1,2.8-0.4s4.2-0.8,4.2-0.8l2.8-0.6l2.2-0.8l3.1-1.4l2.5-1.2l3.1-1.8l1.8-1.1l2-1.5l1.8-1.8l1.1-1.4l1-1.6l0.8-2.2
	l0.3-2.2l-0.2-3.5l-0.5-2.4l-0.8-1.4l-2.3-2.2l-2.9-2.4l-3.3-2.1l-3.2-1.8l-3.5-1.3l-3.9-1.2l-2.8-0.8l-3.9-1l-3.5-0.8l-4.8-0.4
	l-4.8-0.2l-4.5-0.1l-3.8-0.1l-3.4,0.2l-4,0.4l-4.4,0.5l-4.2,0.7l-3.2,0.7l-2.8,0.7l-2.9,0.8l-2.3,0.8l-3.1,1.4l-1.8,1l-1.1,0.8
	c0,0-0.9,0.6-1.8,1.3c-0.8,0.8-2.2,1.9-2.2,1.9l-1.9,2.1l-1,1.4l-0.9,1.2L195.7,70z"/>
<path class="st0" d="M200.4,76.2l1.5,2.1l2.6,2.2c0,0,1,0.9,4.1,2.6s3.1,1.8,3.1,1.8l3.8,1.4l6.9,1.9l5.8,0.8l5.1,0.5h9.4l7.4-0.4
	l7.4-0.8l5.2-1l4.5-1.2l4.5-1.8l3.6-1.8l3-1.9l2.4-2.9l0.6-1.8l0.6-2.8l-0.9-3.1l-2.6-2.8l-4.9-3.1l-6-2.6l-4-1.2l-4.1-1l-4.5-0.8
	l-5.9-0.6l-4.9-0.2h-5.8l-5.8,0.2l-3.9,0.4l-3.1,0.4l-4.2,0.8l-4.5,1.1l-3.8,1.2l-4.1,1.5l-2.9,1.6l-2.4,2.1l-1.5,1.6l-1.1,1.4
	l-1,1.4l-0.2,1.6c0,0-0.4,0.4-0.2,1.1s0.1,0.8,0.1,0.8L200.4,76.2z"/>
<path class="st0" d="M191.3,213.3c0.5,0.7,0.5,0.7,0.5,0.7s-0.7-0.4,0.8,1.4c1.4,1.8,1.9,2.8,1.9,2.8l1.6,1.7c0,0-0.2-0.2,0.7,0.6
	c0.9,0.8,0.9,0.8,0.9,0.8l1.9,1.4l2.2,1l2.7,1l1.9,0.7l3.2,1.1c0,0-0.2,0,2.8,0.9c3,0.9,1.8,0.5,1.8,0.5l2.4,0.5l1.9,0.5l2.5,0.2
	l2.7,0.2l4.8,0.4l5.8,0.1h7l3.9-0.2l4.2-0.3l4.2-0.6l4.7-0.8l3.3-0.9l3.1-1c0,0,0.3-0.1,2.1-0.8c1.8-0.7,4.2-1.9,4.2-1.9l2.3-1.5
	l3.1-2.5l1.2-1.1l1.5-1.7c0,0,0.9-0.9,1.2-1.5c0.3-0.6,0.8-1.5,0.8-1.5l0.1-1.3l-0.1-3.1l-0.2-2.3l-0.4-0.8l-1.2-2.3l-0.3-0.8"/>
<path class="st0" d="M195.5,75.9c0,7.2-2.1,16.8,3.5,22.2c9.7,9.3,26.3,11.7,39.1,12.2c14.2,0.5,27.7-1,40.2-8.2l2.7-2.1
	c0,0,1.1-0.8,1.6-1.4s0.5-0.6,0.5-0.6l2-3.2c2.3-6.8,0.3-13.8,0.9-21.2"/>
<path class="st0" d="M281.2,100.2l-0.2,13.2l-0.4,0.8l-1.1,1.8l-0.7,1.4c0,0,0,0-1.6,1.6s-1.8,1.7-1.8,1.7s-1.5,1.3-1.7,1.3
	s-2.1,1.2-2.1,1.2l-1.9,0.9l-3.8,1.5l-3.6,1.4l-3.2,0.9l-4.2,1l-3.2,0.6l-5,0.4l-6,0.3l-10.3-0.2l-6.7-0.3l-2.8-0.3l-2.9-0.4
	l-2.1-0.6c0,0-1.1-0.2-4.9-1.4s-3.8-1.2-3.8-1.2l-2.8-1.1l-3.4-1.4c0,0-1.8-0.9-3.9-2.4s-2.8-2.5-2.8-2.5l-2.4-2.9l-0.8-1.9
	l-0.2-1.4l-0.2-17.5c0-2.2,0-1.7,0-1.7l0.1-1.2l0.2-1.4c0,0,0.2-0.9,0.5-1.3s1.2-2.1,1.2-2.1l1.8-2.5l0.6-0.6"/>
<path class="st0" d="M264.5,126.4c-20.2,10.6-44.2,7.6-65.2-0.4c-5-2-13-7-11.4-14.4l0.2-1.5l0.4-1.4l2.2-3.5l0.2-1.1"/>
<path class="st0" d="M187.8,115.6c0,3.4,0,3.4,0,3.4l-0.2,13.3v1c0,0-0.1,0.3,0.7,1.5c0.8,1.2,2,2.3,2,2.3l2.3,2.2l3.9,2.5l2.1,1.3
	l4.7,1.9l5.6,1.8l3.2,0.8c0,0,0.7,0.2,5.2,1c4.6,0.8,7.1,0.8,7.1,0.8l7.7,0.4l7.1,0.1l6.4-0.3l5.8-0.9l6.1-1.2l3.8-1.3l3.2-1.4
	l4.3-2.3c0,0,1.2-0.8,3.2-2.1s2.5-2.2,2.5-2.2l1.7-2l0.9-1.2l1-2.2l0.1-0.6l-0.1-13.8"/>
<path class="st0" d="M217,168.7l-2.1-0.2l-4-0.6l-3.1-1.1l-3.1-1.5l-3.2-1.8l-2.9-1.8l-2.8-2.1l-1.1-1l-1.6-1.8c0,0-1.2-1.9-1.9-3.6
	s-0.4-1.8-0.4-1.8l-0.2-13.2l-0.2-1.1"/>
<path class="st0" d="M258.4,169l-3,1.1l7.7-2.8c0,0,1.8-0.2,5.8-2.5s6-3.5,6-3.5l3.2-2.5l2-2.2l1.2-3.8v-21.2c0,0-0.2-1.2-1.2-3
	s-1-1.8-1-1.8l0,0l-1.2-2"/>
<path class="st0" d="M191,138.3c0.7,0.9,0.7,0.9,0.7,0.9l2.6,2.8l1.6,1.4c0,0,0.6,0.5,2.2,1.6s3.6,1.9,3.6,1.9l3.1,1.4l2.9,1.3
	l2.9,0.9l2.9,0.8l4.3,0.8l3.7,0.5l6.2,0.6c0,0-0.3-0.1,5.4,0.1c5.7,0.2,7.2,0.2,7.2,0.2l4.2-0.2l3.6-0.4l4.4-0.5l3.6-0.7l4.7-1.2
	l3.9-1.2c0,0,2.4-0.9,4.7-1.9s3.2-1.9,3.2-1.9l2-1.6l2.1-1.8l1.3-1.6l1.6-2.6l1.6-3.5"/>
<path class="st0" d="M92.7,234.9l1.5,2.1l2.6,2.2c0,0,1,0.9,4.1,2.6s3.1,1.8,3.1,1.8l3.8,1.4l6.9,1.9l5.8,0.8l5.1,0.5h9.4l7.4-0.4
	l7.4-0.8l5.2-1l4.5-1.2l4.5-1.8l3.6-1.8l3-1.9l2.4-2.9l0.6-1.8l0.6-2.8l-0.9-3.1l-2.6-2.8l-4.9-3.1l-6-2.6l-4-1.2l-4.1-1l-4.5-0.8
	l-5.9-0.6l-4.9-0.2h-5.8l-5.8,0.2l-3.9,0.4l-3.1,0.4l-4.2,0.8l-4.5,1.1l-3.8,1.2l-4.1,1.5l-2.9,1.6l-2.4,2.1l-1.5,1.6l-1.1,1.4
	l-1,1.4l-0.2,1.6c0,0-0.4,0.4-0.2,1.1s0.1,0.8,0.1,0.8L92.7,234.9z"/>
<path class="st0" d="M96.4,34.9l1.5,2.1l2.6,2.2c0,0,1,0.9,4.1,2.6s3.1,1.8,3.1,1.8l3.8,1.4l6.9,1.9l5.8,0.8l5.1,0.5h9.4l7.4-0.4
	l7.4-0.8l5.2-1l4.5-1.2l4.5-1.8l3.6-1.8l3-1.9l2.4-2.9l0.6-1.8l0.6-2.7l-0.9-3.1l-2.6-2.8l-4.9-3.1l-6-2.6l-4-1.2l-4.1-1l-4.5-0.8
	l-5.9-0.6l-4.9-0.2h-5.8l-5.8,0.2l-3.9,0.4l-3.1,0.4l-4.2,0.8l-4.5,1.1l-3.8,1.2l-4.1,1.5l-2.9,1.6l-2.4,2.1l-1.5,1.6l-1.1,1.4
	l-1,1.4l-0.2,1.6c0,0-0.4,0.4-0.2,1.1s0.1,0.8,0.1,0.8L96.4,34.9z"/>
<path class="st0" d="M19,155.9l1.5,2.1l2.6,2.2c0,0,1,0.9,4.1,2.6s3.1,1.8,3.1,1.8l3.7,1.4l6.9,1.9l5.8,0.8l5.1,0.5h9.4l7.4-0.4
	L76,168l5.2-1l4.5-1.2l4.5-1.8l3.6-1.8l3-1.9l2.4-2.9l0.6-1.8l0.6-2.8l-0.9-3.1l-2.6-2.8l-4.9-3.1l-6-2.6l-4-1.2l-4.1-1l-4.5-0.8
	l-5.9-0.6l-4.9-0.2H57l-5.8,0.2l-3.9,0.4l-3.1,0.4l-4.2,0.8l-4.5,1.1l-3.7,1.2l-4.1,1.5l-2.9,1.6l-2.4,2.1l-1.5,1.6l-1.1,1.4l-1,1.4
	l-0.2,1.6c0,0-0.4,0.4-0.2,1.1s0.1,0.8,0.1,0.8L19,155.9z"/>
<path class="st0" d="M92.1,29.1L92,30.5l-0.1,1.6c0,0,0,0,0.2,4.4l1,1.9l1.9,2.5l1.1,1.1l1.9,1.5l2.6,1.9l1.8,1l2.1,1.2l1.9,0.9
	l3.2,1.2l2,0.6l3.6,1l2.1,0.4l2.6,0.4l3.8,0.5l4,0.4l3.9,0.2h5.2h5.9l3.2-0.1c0,0,1.5-0.1,2.8-0.2s1.2-0.1,1.2-0.1l2.9-0.2
	c0,0,0.6-0.1,2.8-0.4s4.2-0.8,4.2-0.8l2.8-0.6l2.2-0.8l3.1-1.4l2.5-1.2l3.1-1.8l1.8-1.1l2-1.5l1.8-1.8l1.1-1.4l1-1.6L182,36l0.3-2.2
	l-0.2-3.5l-0.5-2.4l-0.8-1.4l-2.3-2.2l-2.9-2.4l-3.3-2.1L169,18l-3.5-1.3l-3.9-1.2l-2.8-0.8l-3.9-1l-3.5-0.8l-4.8-0.4l-4.8-0.2
	l-4.5-0.1l-3.8-0.1l-3.4,0.2l-4,0.4l-4.4,0.5l-4.2,0.7l-3.2,0.7l-2.8,0.7l-2.9,0.8l-2.3,0.8l-3.1,1.4l-1.8,1l-1.1,0.8
	c0,0-0.9,0.6-1.8,1.3c-0.8,0.8-2.2,1.9-2.2,1.9l-1.9,2.1l-1,1.4L92.4,28L92.1,29.1z"/>
<path class="st0" d="M14.1,150l-0.1,1.4l-0.1,1.6c0,0,0,0,0.2,4.4l1,1.9l1.9,2.5l1.1,1.1l1.9,1.5l2.6,1.9l1.8,1l2.1,1.2l1.9,0.9
	l3.2,1.2l2,0.6l3.6,1l2.1,0.4L42,173l3.8,0.5l4,0.4l3.9,0.2h5.2h5.9L68,174c0,0,1.5-0.1,2.8-0.2s1.2-0.1,1.2-0.1l2.9-0.2
	c0,0,0.6-0.1,2.8-0.4s4.2-0.8,4.2-0.8l2.8-0.6l2.2-0.8l3.1-1.4l2.5-1.2l3.1-1.8l1.8-1.1l2-1.5l1.8-1.8l1.1-1.4l1-1.6l0.8-2.2
	l0.3-2.2l-0.2-3.5l-0.5-2.4l-0.8-1.4l-2.3-2.2l-2.9-2.4l-3.3-2.1l-3.2-1.8l-3.5-1.3l-3.9-1.2l-2.8-0.8l-3.9-1l-3.5-0.8l-4.8-0.4
	l-4.8-0.2l-4.5-0.1l-3.8-0.1l-3.4,0.2l-4,0.4l-4.4,0.5l-4.2,0.7l-3.2,0.7l-2.8,0.7l-2.9,0.8l-2.3,0.8l-3.1,1.4l-1.8,1l-1.1,0.8
	c0,0-0.9,0.6-1.8,1.3c-0.8,0.8-2.2,1.9-2.2,1.9l-1.9,2.1l-1,1.4l-0.9,1.2L14.1,150z"/>
<path class="st0" d="M91.8,35.2c0,7.2-2.1,16.8,3.5,22.2c9.7,9.3,26.3,11.7,39.1,12.2c14.2,0.5,27.7-1,40.2-8.2l2.7-2.1
	c0,0,1.1-0.8,1.6-1.4s0.5-0.6,0.5-0.6l2-3.2c2.3-6.8,0.3-13.8,0.9-21.2"/>
<path class="st0" d="M87.5,236.2c0,7.2-2.1,16.8,3.5,22.2c9.7,9.3,26.3,11.7,39.1,12.2c14.2,0.5,27.7-1,40.2-8.2l2.7-2.1
	c0,0,1.1-0.8,1.6-1.4s0.5-0.6,0.5-0.6l2-3.2c2.3-6.8,0.3-13.8,0.9-21.2"/>
<path class="st0" d="M87.7,229.3l-0.1,1.4l-0.1,1.6c0,0,0,0,0.2,4.4l1,1.9l1.9,2.5l1.1,1.1l1.9,1.5l2.6,1.9l1.8,1l2.1,1.2l1.9,0.9
	l3.2,1.2l2,0.6l3.6,1l2.1,0.4l2.6,0.4l3.8,0.5l4,0.4l3.9,0.2h5.3h5.9l3.2-0.1c0,0,1.5-0.1,2.8-0.2s1.2-0.1,1.2-0.1l2.9-0.2
	c0,0,0.6-0.1,2.8-0.4s4.2-0.8,4.2-0.8l2.8-0.6l2.2-0.8l3.1-1.4l2.5-1.2l3.1-1.8l1.8-1.1l2-1.5l1.8-1.8l1.1-1.4l1-1.6l0.8-2.2
	l0.3-2.2l-0.2-3.5l-0.5-2.4l-0.8-1.4l-2.3-2.2l-2.9-2.4l-3.3-2.1l-3.2-1.8l-3.5-1.3l-3.9-1.2l-2.8-0.8l-3.9-1l-3.5-0.8l-4.8-0.4
	l-4.8-0.2l-4.5-0.1l-3.8-0.1l-3.4,0.2l-4,0.4l-4.4,0.5l-4.2,0.7l-3.2,0.7l-2.8,0.7l-2.9,0.8l-2.3,0.8l-3.1,1.4l-1.8,1l-1.1,0.8
	c0,0-0.9,0.6-1.8,1.3c-0.8,0.8-2.2,1.9-2.2,1.9l-1.9,2.1l-1,1.4l-0.9,1.2L87.7,229.3z"/>
<path class="st0" d="M99.7,179.4c-0.6,6.7,1.4,13-0.9,19.1l-2,2.9c0,0,0,0-0.5,0.6s-1.6,1.2-1.6,1.2l-2.7,1.9
	c-12.5,6.5-26,7.8-40.2,7.4c-12.9-0.4-29.4-2.6-39.1-10.9c-5.6-4.9-3.5-13.5-3.5-20l0.3-2.3"/>
<path class="st0" d="M178,58.5c-0.6,7.5,1.4,14.5-0.9,21.2l-2,3.2c0,0,0,0-0.5,0.6c-0.5,0.6-1.6,1.4-1.6,1.4l-2.7,2.1
	c-12.4,7.2-25.9,8.7-39.9,8.2c-12.8-0.5-29.2-2.8-38.9-12.2c-5.6-5.4-2.9-15.1-3.5-22.2c-0.2-2.8-0.2-2.8-0.2-2.8l-0.2-2.8v-1.7
	l1.3-2.3l1.7-2.7L91,47"/>
<path class="st0" d="M87.5,81.6c0,7.2-2.1,16.8,3.5,22.2c9.7,9.3,26.3,11.7,39.1,12.2c14.2,0.5,27.7-1,40.2-8.2l2.7-2.1
	c0,0,1.1-0.8,1.6-1.4s0.5-0.6,0.5-0.6l2-3.2c2.3-6.8,0.3-13.8,0.9-21.2"/>
<path class="st0" d="M172,107l-4.3,4l-7.8,4.2l-5.8,2l-7.3,2l-5,1l-8.5,0.8H126c0,0-6,0-7.5-0.3s-4.8-0.7-4.8-0.7l-5.5-1.2
	c0,0-5-1-6.5-1.5s-4.2-1.7-4.2-1.7l-4.7-2.2l-5.2-2.7l-3.8-3.2l-2-3.2c-0.5,6.9-1.5,13.9,1.5,19.9c3,4,7,7,12,9c24,9,51,9,72.6-5.2
	l1.4-1.6l2.2-2l1.2-3l0.1-15.8"/>
<path class="st0" d="M87.7,59.3l1.2,2.3l1.3,1.8c0,0,0.8,1.3,1.5,2c0.7,0.7,3.7,3,3.7,3l3.8,2.2l5.5,2l6.7,2l7.7,1l9.5,0.7h6.2
	l8.7-0.2l6.8-1l5.8-1.5l5.7-1.7l5.2-1.8l4.3-2.3l3-2.3l1.7-2.8l1.5-2.5"/>
<line class="st0" x1="87.9" y1="75.2" x2="87.4" y2="82.5"/>
<path class="st0" d="M88,77.3c0,0,0.2,4.3,0.5,5c0.3,0.7,1.3,2.2,1.3,2.2s0.3,1.3,2.7,3.2s6.3,4.2,6.3,4.2l6,2.5l7.8,1.7l8,1.2
	l5.7,0.3l7.5,0.5l9-0.3c0,0,2.5-0.2,5.8-0.8c3.3-0.7,9.2-2.2,9.2-2.2s4-1.3,5.7-1.8c1.7-0.5,6-3,6-3l4.3-3.8l2.8-5.2"/>
<path class="st0" d="M87.2,90.5l-3,2.8c-0.7,1.2-0.7,1.2-0.7,1.2l-0.7,1.7c0,0-0.7,1.7-0.7,1.8c0,0.2-0.3,2.7-0.3,2.7v4.8"/>
<line class="st0" x1="87.4" y1="129.2" x2="87.5" y2="137.6"/>
<path class="st0" d="M100,193.2l3.5,1.7l5.3,2c0,0,2.8,1,6.2,1.8c3.3,0.8,9.5,1.7,9.5,1.7l8,0.7l10.7-0.2l6.3-0.3l5.5-0.7l6.7-1.7
	l6.3-2.2l6.2-3l4.8-4l3.3-3.2v12.7l-0.7,3c0,0-1,2.5-1.2,2.8c-0.2,0.3-2.5,2.7-2.5,2.7l-3,2.5l-4.2,2.3l-6,2.3l-6.5,1.7"/>
<path class="st0" d="M13.2,167.5l-1.5,1.8l-1,1.3l-0.3,2l-0.3,1.5l-0.5,3.2v1.8c0,0,1,2.7,1.2,2.5l2.5,3l3.2,2.5l4.5,2.5l3.3,1.3
	l8,2.5c0,0,3.7,0.7,6,1.2s9,0.8,9,0.8L55,196l6.3-0.2l6.8-0.5l5.7-0.7c0,0,5.2-1.5,7-2c1.8-0.5,6.7-2.5,6.7-2.5l3-1.7l4.5-3l4-4.3"
	/>
<path class="st0" d="M11.9,201c0,0-0.2,11.7-0.2,13.8c0,2.2,0,3.2,0,3.2s0.2,0.7,1.2,2s1,1.3,3,3.3s4.5,3.2,4.5,3.2l4,1.7l5.7,2.3
	l5.8,1.7l7.2,1.2c0,0,0.2,0.5,8.8,0.8c8.7,0.3,13.7-0.2,13.7-0.2l7.3-0.8l8.3-1.7l5.3-1.7l1.1-0.5"/>
<path class="st0" d="M12.7,201.5c0,0,1.6,3.5,3,4.9c1.3,1.3,4.2,3.3,4.2,3.3l4.2,2.2l5.2,2l6.5,1.7l8.3,1.2l12,0.5l6.8,0.2l7.3-0.5
	l7.2-1.3c0,0,6.7-1.2,6.8-1.3c0.2-0.2,5.5-2,5.5-2l5.7-3l4.7-3.3l1.5-1.8l0.3-1v-9.2l-0.2,23.2"/>
<path class="st0" d="M173.4,111.5c1.8,1.5,3,3.8,3,3.8s0.2,0,0.8,2.2s0.5,3.2,0.5,3.2l-0.2,1v2l-1.5,3.2l-3.8,3.8l-5,3.5l-7.5,2.8
	l-9.8,2.2l-8.5,0.8l-10.8-0.2"/>
<path class="st0" d="M178.1,131c1.8,1.5,3,3.8,3,3.8s0.2,0,0.8,2.2s0.5,3.2,0.5,3.2l-0.2,1v2l-1.5,3.2l-3.8,3.8l-5,3.5l-7.5,2.8
	l-9.8,2.2l-8.5,0.8l-10.8-0.2c-9.2-0.8-9.2-0.8-9.2-0.8l-7.2-1.2l-11.5-3.2"/>
<path class="st0" d="M177.6,120.7c0.5,18.2,0.5,18.2,0.5,18.2l-0.5,2.2c0,0-0.2,0.8-2.2,3.5s-5.5,5-5.5,5l-8.5,4l-6.8,1.5l-11.2,2
	h-5.8h-10l-9-1l-6.2-1.2l-8-1.8c-0.6,7.5,1.4,14.5-0.9,21.2l-2,3.2c0,0,0,0-0.5,0.6s-1.6,1.4-1.6,1.4l-2.7,2.1
	c-12.5,7.2-26,8.7-40.2,8.2c-12.9-0.5-29.4-2.8-39.1-12.2c-5.6-5.4-3.5-15-3.5-22.2"/>
<path class="st0" d="M182.1,143.2v16.5l-1.5,3c0,0-1.5,2.5-3.8,4.2s-7.5,4-7.5,4l-7,2.5l-6.8,2l-6.8,1.2l-9.2,0.5h-8.2l-7.5-0.5
	l-5.2-0.8l-6.2-1.2l-5.8-2.2l-2.5-1.2"/>
<path class="st0" d="M182.4,152.2c0,0,0.8,0.5,1.5,2s1,3.8,1,3.8v2.2l-0.2,2.8l-1.2,2.8l-2.8,3l-4.2,3.2l-7,2.8l-8.2,2l-9,1.2
	l-12.8,0.5l-11-1"/>
<path class="st0" d="M100.1,186.7l4,2.8l6.5,3l8,2.2l8,1.8l7.8,0.5l9.5,0.2l6.2-0.2c0,0,4.2-0.8,6.2-1s8.8-2.2,8.8-2.2l9.2-3.5
	c0,0,2.5-1,3.8-1.8s5-5,5-5l1.8-2.5l0.2-1.8l-0.2-19"/>
<line class="st0" x1="101.4" y1="210.7" x2="110.6" y2="214.7"/>
</svg>
