<?xml version="1.0" encoding="utf-8"?>
<!-- Generator: Adobe Illustrator 22.0.1, SVG Export Plug-In . SVG Version: 6.00 Build 0)  -->
<svg version="1.1" id="Layer_1" xmlns="http://www.w3.org/2000/svg" xmlns:xlink="http://www.w3.org/1999/xlink" x="0px" y="0px"
	 viewBox="0 0 164.8 126.7" style="enable-background:new 0 0 164.8 126.7;" xml:space="preserve">
<style type="text/css">
	.st0{fill:#FFFFFF;stroke:#FFFFFF;stroke-width:3;stroke-miterlimit:10;}
	.st1{fill:none;stroke:#F9F9F9;stroke-miterlimit:10;}
	.st2{fill:none;stroke:#FFFFFF;stroke-width:2;stroke-miterlimit:10;}
</style>
<line class="st0" x1="236.4" y1="-172.8" x2="241.5" y2="-168.3"/>
<line class="st0" x1="246.9" y1="-161.2" x2="254" y2="-156.3"/>
<line class="st0" x1="262.6" y1="-153.6" x2="269.2" y2="-154.9"/>
<line class="st0" x1="278.6" y1="-156.3" x2="284.3" y2="-161.2"/>
<line class="st0" x1="291.7" y1="-165.7" x2="297.4" y2="-170.6"/>
<line class="st0" x1="305.1" y1="-175.7" x2="311.9" y2="-178.5"/>
<line class="st0" x1="320.5" y1="-178.5" x2="328.2" y2="-177.1"/>
<line class="st0" x1="337" y1="-175.7" x2="343.3" y2="-172.8"/>
<line class="st0" x1="351" y1="-165.7" x2="356.1" y2="-161.2"/>
<line class="st0" x1="359.2" y1="-153.2" x2="360.8" y2="-146.5"/>
<line class="st0" x1="361.7" y1="-136.7" x2="361.5" y2="-129.8"/>
<line class="st0" x1="359.2" y1="-120.4" x2="357.1" y2="-113.9"/>
<line class="st0" x1="352" y1="-106.2" x2="348.3" y2="-100.4"/>
<line class="st0" x1="338.8" y1="-96.4" x2="332.9" y2="-92.8"/>
<line class="st0" x1="323.8" y1="-93.1" x2="317.1" y2="-94.3"/>
<line class="st0" x1="302.5" y1="-101.5" x2="307.6" y2="-96.9"/>
<line class="st0" x1="286.8" y1="-106.2" x2="293.7" y2="-105.8"/>
<line class="st0" x1="272.3" y1="-99.5" x2="277.9" y2="-103.4"/>
<line class="st0" x1="237.3" y1="-104.6" x2="264.1" y2="-84.4"/>
<line class="st0" x1="240.5" y1="-81.6" x2="260.8" y2="-108.5"/>
<polyline class="st1" points="26.1,-130.2 47.6,-130 26.1,-123.5 26.1,-119.6 50,-124.2 50.4,-118.5 26.1,-115.1 "/>
<path class="st1" d="M39.9-130.2c0,0,3.1-41,11.9-40.3c8.8,0.7-2.6,15.7-15.5,1.8c0,0-6.2-8.4,0.2-12.1s2.8,10.6-3.6,14.2
	c0,0-7.5,6.4-10.4,1.6c-3-4.8,2-9.1,3.1-3.7c1.2,5.4,7.9,38.5,7.9,38.5"/>
<path class="st1" d="M49.2-130.2c-2.1-1.4,5.1-18.6,13.4-31.5s0.6-44.7-27.8-43.5S8-170.3,15.1-161.7s10.1,31.5,10.1,31.5v17.6
	l1.9,1.6c0,0,0.3,2.7,2.8,3.7s3,2.7,3,2.7h9c0,0,1-1.9,2.4-2.4c1.3-0.4,3.1-2.8,3-3.9l2.4-2.4L49.2-130.2z"/>
<line class="st1" x1="26" y1="-112.6" x2="50.5" y2="-113.2"/>
<line class="st1" x1="29" y1="-108.8" x2="47.5" y2="-108.8"/>
<line class="st1" x1="32" y1="-106.1" x2="44.5" y2="-106.9"/>
<circle class="st2" cx="51.8" cy="23.2" r="12.3"/>
<circle class="st2" cx="113.8" cy="23.2" r="12.3"/>
<circle class="st2" cx="82.5" cy="79.5" r="12.3"/>
<path class="st2" d="M61,31.3c0,0,14.2,11.1,14.2,27.3H26.9c0-12.5,14.8-28.3,14.8-28.3"/>
<path class="st2" d="M123.7,32c0,0,14.2,11.1,14.2,27.3H89.6c0-12.5,14.8-28.3,14.8-28.3"/>
<path class="st2" d="M92.4,88.5c0,0,14.2,11.1,14.2,27.3H58.3c0-12.5,14.8-28.3,14.8-28.3"/>
<path class="st2" d="M66.9,37.4c0,0,14.4-8.9,32.2,0"/>
<path class="st2" d="M47.8,59.2c0,0-7.7,26.3,15.4,41.8"/>
<path class="st2" d="M118.5,59.9c0,0,7.7,26.3-15.4,41.8"/>
</svg>
