<svg width="30.2" height="30.2" xmlns="http://www.w3.org/2000/svg">

 <g>
  <title>background</title>
  <rect fill="none" id="canvas_background" height="402" width="582" y="-1" x="-1"/>
 </g>
 <g>
  <title>Layer 1</title>
  <path stroke-miterlimit="10" stroke-linejoin="round" stroke-linecap="round" stroke-width="1.25" stroke="#ffffff" fill="none" id="svg_1" d="m11.7,21.6c0,0 -3.8,2.9 -7.2,2.5c-3.4,-0.4 12.5,5.9 19,-3.6c2.5,-3.6 2.7,-7.3 2.8,-8.5c0,-0.2 0.1,-0.5 0.2,-0.7l1.9,-2.7l-2.4,0.7l2.3,-3.2l-2.7,1.2c-0.4,0.2 -0.9,0.1 -1.3,-0.1c-1,-0.7 -3.2,-1.9 -5.7,-0.1c-2,1.4 -2.5,2.9 -2.7,3.9c-0.1,0.7 -0.8,1.2 -1.5,1c-1.9,-0.4 -5.1,-1.3 -7.4,-3.4c-0.7,-0.8 -2.1,-0.4 -2.1,0.7c0,1 0.4,2.5 2.1,4.5l-2.1,-1c0,0 -0.4,3.2 3.8,5.1l-2.1,0.4" class="st0"/>
 </g>
</svg>
