<?xml version="1.0" encoding="utf-8"?>
<!-- Generator: Adobe Illustrator 22.0.1, SVG Export Plug-In . SVG Version: 6.00 Build 0)  -->
<svg version="1.1" xmlns="http://www.w3.org/2000/svg" xmlns:xlink="http://www.w3.org/1999/xlink" x="0px" y="0px"
	 viewBox="0 0 841.9 679.8" style="enable-background:new 0 0 841.9 679.8;" xml:space="preserve">
<style type="text/css">
	.st0{fill:#FFFFFF;}
	.st1{fill:#E4AD53;}
</style>
<g id="Layer_1">
</g>
<g id="Layer_2">
	<g>
		<g>
			<path class="st0" d="M467.2,294.4h-7.5v32.1h7c13.3,0,19.9-5.9,19.9-17.6C486.8,299.3,480.3,294.4,467.2,294.4z"/>
			<path class="st0" d="M709.7,296.3h-11v78.6h8.4c11.4,0,19.9-3.3,25.3-10c5.4-6.6,8.1-16.6,8.1-30s-2.5-23.1-7.6-29.3
				C727.8,299.5,720,296.3,709.7,296.3z"/>
			<path class="st0" d="M332.7,294.6c-19,0-28.5,13.6-28.5,40.9c0,27.3,9.4,40.9,28.3,40.9c9.7,0,16.8-3.3,21.4-9.9
				c4.6-6.6,6.9-16.9,6.9-30.8c0-13.9-2.3-24.3-7-31C349.2,298,342.1,294.6,332.7,294.6z"/>
			<path class="st0" d="M0,84.5v595.3h841.9V84.5H0z M222.9,406h-44.8L164.7,345c-0.8-3-1.8-8-3.1-15s-2.3-13.5-3-19.3
				c-1.2,10-3.2,20.9-5.9,32.5l-14,62.9H94L59.3,265.7h36.6l15.2,70.4c3.4,15.6,5.8,27.9,7,37.1c0.9-6.5,2.3-15.4,4.5-26.5
				c2.1-11.2,4.2-20.4,6.1-27.8l12.4-53.1h35.1l12,53.1c1.8,7.9,3.8,17.4,6,28.5c2.1,11.1,3.6,19.7,4.5,25.9
				c0.6-6.4,2.9-18.7,6.8-36.9l15.5-70.6h36.6L222.9,406z M383.3,389.6c-11.6,12.3-28.4,18.4-50.6,18.4c-22.2,0-39.2-6.2-50.9-18.6
				c-11.7-12.4-17.5-30.3-17.5-53.7c0-23.5,5.8-41.3,17.5-53.6c11.7-12.3,28.6-18.4,50.9-18.4c22.3,0,39.2,6.1,50.7,18.3
				c11.5,12.2,17.3,30.1,17.3,53.8C400.7,359.4,394.9,377.3,383.3,389.6z M499.1,406L469.4,355h-9.6V406h-38V265.7h46
				c38.2,0,57.3,13.8,57.3,41.5c0,16.3-8,28.9-23.9,37.7l40.9,61.1H499.1z M642.5,406h-91.9V265.7h38v109.7h53.9V406z M760.5,387
				c-12.9,12.7-31,19-54.3,19h-45.4V265.7h48.6c22.5,0,39.8,5.8,52.1,17.3s18.4,28.1,18.4,49.9C779.8,356.3,773.4,374.3,760.5,387z"
				/>
		</g>
		<rect class="st0" width="841.9" height="84.5"/>
	</g>
</g>
<g id="Layer_3">
	<g>
		<path class="st1" d="M86.2,234.1c0-1,0-1.8,0-2.3c0-0.6,0.1-3,0.3-7.2h-0.2l-7.9,24h-6L65,224.5h-0.2c0.3,5.1,0.4,8.3,0.4,9.8
			v14.3h-5.8v-30.7h8.8l7.3,23.5h0.1l7.7-23.5h8.9v30.7h-6.1V234.1z"/>
		<path class="st1" d="M124.9,248.6h-7l-2.2-7.3h-11.2l-2.2,7.3h-7l10.8-30.8h8L124.9,248.6z M106.1,235.8h8l-3.5-11.2
			c-0.2-0.8-0.4-1.5-0.6-2.1C109.6,224.2,108.3,228.7,106.1,235.8z"/>
		<path class="st1" d="M134.3,248.6h-6.5v-30.7h6.5v14.1l2.5-3.6l8.3-10.5h7.2l-10.7,13.6l10.8,17.1h-7.4l-8.1-12.9l-2.7,2V248.6z"
			/>
		<path class="st1" d="M173.1,243.2v5.4h-17.7v-30.7h17.7v5.3H162v6.7h10.4v5.3H162v7.9H173.1z"/>
		<path class="st1" d="M202,223.3v25.3h-6.5v-25.3h-8.3v-5.4h23.2v5.4H202z"/>
		<path class="st1" d="M239.3,217.9v30.7h-6.5v-13.3h-12.2v13.3h-6.5v-30.7h6.5v12h12.2v-12H239.3z"/>
		<path class="st1" d="M263.8,243.2v5.4h-17.7v-30.7h17.7v5.3h-11.2v6.7H263v5.3h-10.4v7.9H263.8z"/>
	</g>
	<g>
		<g>
			<path class="st1" d="M541.2,454.1h-6.5v-11.7l-10.2-19h7L538,436l6.4-12.7h7l-10.2,18.8V454.1z"/>
			<path class="st1" d="M555.9,427c2.6-2.7,6.2-4,10.9-4c4.7,0,8.3,1.4,10.8,4.1c2.5,2.7,3.7,6.6,3.7,11.7c0,5.1-1.3,9-3.8,11.7
				c-2.5,2.7-6.1,4.1-10.8,4.1c-4.7,0-8.3-1.4-10.8-4.1c-2.5-2.7-3.8-6.6-3.8-11.8C552.1,433.6,553.4,429.6,555.9,427z M566.8,428.3
				c-2.6,0-4.5,0.9-5.8,2.6c-1.3,1.7-2,4.3-2,7.8c0,6.9,2.6,10.4,7.8,10.4c5.2,0,7.8-3.5,7.8-10.4
				C574.5,431.8,571.9,428.3,566.8,428.3z"/>
			<path class="st1" d="M605.3,423.4h6.5v19.9c0,3.4-1.1,6.1-3.4,8.2c-2.3,2.1-5.4,3.1-9.3,3c-4,0-7-1-9.2-3c-2.2-2-3.3-4.8-3.3-8.3
				v-19.8h6.5v18.8c0,2.4,0.5,4.1,1.4,5.2c1,1.1,2.5,1.6,4.7,1.6s3.7-0.6,4.7-1.7s1.4-2.9,1.4-5.3V423.4z"/>
			<path class="st1" d="M624.9,442.3v11.8h-6.5v-30.7h8.9c4.2,0,7.2,0.8,9.3,2.3c2,1.5,3,3.8,3,6.9c0,1.8-0.5,3.4-1.5,4.8
				c-1,1.4-2.4,2.5-4.2,3.3c4.6,6.9,7.6,11.4,9,13.4h-7.2l-7.3-11.8H624.9z M624.9,428.7v8.3h2.1c2.1,0,3.6-0.3,4.6-1
				c1-0.7,1.5-1.8,1.5-3.2s-0.5-2.5-1.5-3.1c-1-0.6-2.5-0.9-4.7-0.9H624.9z"/>
			<path class="st1" d="M682.5,423.4v30.7H676v-13.3h-12.2v13.3h-6.5v-30.7h6.5v12H676v-12H682.5z"/>
			<path class="st1" d="M691.8,427c2.6-2.7,6.2-4,10.9-4c4.7,0,8.3,1.4,10.8,4.1c2.5,2.7,3.7,6.6,3.7,11.7c0,5.1-1.3,9-3.8,11.7
				c-2.5,2.7-6.1,4.1-10.8,4.1c-4.7,0-8.3-1.4-10.8-4.1c-2.5-2.7-3.8-6.6-3.8-11.8C688,433.6,689.2,429.6,691.8,427z M702.6,428.3
				c-2.6,0-4.5,0.9-5.8,2.6c-1.3,1.7-2,4.3-2,7.8c0,6.9,2.6,10.4,7.8,10.4c5.2,0,7.8-3.5,7.8-10.4
				C710.4,431.8,707.8,428.3,702.6,428.3z"/>
			<path class="st1" d="M749.4,439.6c0-1,0-1.8,0-2.3c0-0.6,0.1-3,0.3-7.2h-0.2l-7.9,24h-6l-7.4-24.1h-0.2c0.3,5.1,0.4,8.3,0.4,9.8
				v14.3h-5.8v-30.7h8.8l7.3,23.5h0.1l7.7-23.5h8.9v30.7h-6.1V439.6z"/>
			<path class="st1" d="M780,448.7v5.4h-17.7v-30.7H780v5.3h-11.2v6.7h10.4v5.3h-10.4v7.9H780z"/>
		</g>
	</g>
</g>
</svg>
