<?xml version="1.0" encoding="utf-8"?>
<!-- Generator: Adobe Illustrator 22.0.1, SVG Export Plug-In . SVG Version: 6.00 Build 0)  -->
<svg version="1.1" id="Layer_1" xmlns="http://www.w3.org/2000/svg" xmlns:xlink="http://www.w3.org/1999/xlink" x="0px" y="0px"
	 viewBox="0 0 280.5 283.3" style="enable-background:new 0 0 280.5 283.3;" xml:space="preserve">
<style type="text/css">
	.st0{fill:#E5AD53;}
	.st1{fill:#FFFFFF;}
</style>
<circle class="st0" cx="140.9" cy="140.1" r="139.9"/>
<path class="st1" d="M72.2,224.9c-1.2,0-2.3,0-3.5-0.4c-3.9-1.2-7-4.3-7.8-8.6c-2.3-10.9,6.3-31.3,34-58.2
	c1.6-5.1,3.1-10.9,4.3-16.4c-6.6,7.4-14.9,13.7-24.6,13.7c-7.4,0-10.9-3.5-12.5-6.3c-4.3-7.4-0.4-20.3,3.9-29.3
	c-19.2,6.3-57.8,18.8-73.1,23.1c-2.3,0.8-5.1-0.8-5.9-3.1c-0.4-2.7,0.8-5.5,3.5-6.3c20.3-5.9,82.9-26.2,83.6-26.6
	c2-0.8,3.9,0,5.1,1.6s1.2,3.5,0.4,5.5c-5.5,9.4-12.1,25.4-9.4,30.5c0.4,0.4,0.8,1.6,4.3,1.6c15.6,0,29.3-26.2,33.2-36
	c0.8-2.3,3.5-3.5,5.9-2.7c2.3,0.8,3.5,3.1,3.1,5.5c0,0.4-4.3,16.8-9,33.6c6.3-5.5,13.3-10.9,20.7-16.8c0.4-0.4,0.8-0.8,1.6-1.2
	c-0.8-0.4-1.6-0.8-2.3-0.8c-0.4,0-0.4,0-0.8-0.4c-2.3-0.8-3.9-3.1-3.1-5.9c0.8-2.3,3.1-3.9,5.9-3.1c0.4,0,0.8,0,0.8,0.4
	c2,0.4,3.9,0.8,5.5,1.2c3.5-10.6,7.8-22.3,12.9-36c0.8-2,1.2-3.1,1.6-4.3c7.8-21.5,16-33.6,23.8-36.3c3.5-1.2,7-0.4,9.8,1.6
	c1.6,1.2,3.5,3.5,3.5,7.8c0,12.9-17.6,44.6-35.6,66.4c15.2-3.1,27.4-11.3,27.4-11.3c2-1.2,4.3-1.2,5.9,0.4c1.6,1.6,2,3.9,0.8,5.9
	c-5.5,9-11.7,24.6-8.6,29.7c0.4,0.4,1.2,2,5.5,2c16,0,27.7-22.7,31.7-33.6c0.4-0.8,0.4-1.6,0.8-2c0.8-2.3,3.5-3.5,5.9-2.7
	c2.3,0.8,3.9,3.5,3.1,5.9c0,0-0.4,0.8-0.4,1.6c-3.5,10.6-6.6,26.2-2.3,30.9c1.2,1.2,3.5,1.6,6.6,0.8c21.1-5.1,42.6-11.7,60.6-18.8
	c2.3-0.8,5.1,0.4,5.9,2.7c0.8,2.3-0.4,5.1-2.7,5.9c-18.4,7-40.3,13.7-61.4,19.2c-8.6,2-13.3-0.8-16-3.5c-2.7-3.1-3.9-7.4-4.3-12.1
	c-6.6,8.2-15.6,15.6-27,15.6c-8.2,0-11.7-3.5-13.7-6.6c-3.9-7-1.2-17.2,2-25.8c-7,3.1-16.8,6.3-27,6.6c1.6,2.3,2.7,5.1,3.5,8.2
	c5.1,19.5-5.5,47.3-14.9,56.7c-4.3,3.9-7.8,4.3-9.8,3.5c-2-0.4-3.5-2-4.3-3.5c-2.3-4.3-2.3-15.2,9.4-52.8
	c-10.2,7.8-18.4,15.2-25.4,21.9c-0.8,2.7-1.6,5.1-2,7.4c-0.4,1.6-1.2,4.3-2,7.4c-4.3,19.5-9.4,38.7-19.9,45.3
	C77.3,224.1,75,224.9,72.2,224.9L72.2,224.9z M90.2,176c-17.6,19.9-21.1,33.2-19.9,37.5c0.4,1.2,0.8,1.6,0.8,1.6
	c1.2,0.4,2.3,0,3.5-0.8C82.4,210,87.5,187.7,90.2,176z M139.1,139.3c-0.4,1.2-0.8,2.7-1.2,3.9c-8.6,27.7-10.6,39.1-10.6,43.4
	c5.1-5.5,13.3-23.1,12.9-39.5C140.2,144.3,139.8,141.6,139.1,139.3z M177.7,51.3h-0.4c-3.5,1.2-10.6,9.8-18,30.5
	c-0.4,1.2-0.8,2.7-1.6,4.3c-1.6,4.7-3.9,10.9-6.6,18.8c4.3-5.5,8.2-11.7,12.1-18c12.9-21.1,16-32.8,15.2-35.6H177.7z"/>
</svg>
